<?xml version="1.0" encoding="iso-8859-1"?>
<!-- Generator: Adobe Illustrator 19.0.0, SVG Export Plug-In . SVG Version: 6.00 Build 0)  -->
<svg version="1.1" id="Layer_1" xmlns="http://www.w3.org/2000/svg" xmlns:xlink="http://www.w3.org/1999/xlink" x="0px" y="0px"
	 viewBox="0 0 512 512" style="enable-background:new 0 0 512 512;" xml:space="preserve">
<polygon style="fill:#FFDA79;" points="437.779,104.737 437.779,499.171 74.221,499.171 74.221,104.737 154.137,104.737 
	154.137,135.372 357.863,135.372 357.863,104.737 "/>
<g>
	<rect x="154.137" y="12.829" style="fill:#FF7876;" width="203.726" height="122.543"/>
	<rect x="74.221" y="43.465" style="fill:#FF7876;" width="79.917" height="61.272"/>
	<rect x="357.863" y="43.465" style="fill:#FF7876;" width="79.917" height="61.272"/>
</g>
<g>
	<rect x="149.074" y="202.973" style="fill:#FFFFFF;" width="59.33" height="59.33"/>
	<rect x="149.074" y="341.613" style="fill:#FFFFFF;" width="59.33" height="59.33"/>
</g>
<g>
	<path style="fill:#58595B;" d="M437.779,30.636h-67.088V12.829C370.692,5.744,364.948,0,357.863,0H154.137
		c-7.085,0-12.829,5.744-12.829,12.829v17.807H74.221c-7.085,0-12.829,5.744-12.829,12.829c0,18.534,0,439.401,0,455.706
		c0,7.085,5.744,12.829,12.829,12.829h363.559c7.085,0,12.829-5.744,12.829-12.829c0-16.337,0-437.106,0-455.706
		C450.609,36.38,444.865,30.636,437.779,30.636z M424.95,56.294v35.614h-54.258V56.294H424.95z M166.966,25.658h178.068
		c0,12.687,0,86.256,0,96.885H166.966C166.966,112.265,166.966,38.422,166.966,25.658z M87.05,56.294h54.258v35.614H87.05V56.294z
		 M424.95,486.342H87.05V117.566h54.258v17.807c0,7.085,5.744,12.829,12.829,12.829h203.726c7.085,0,12.829-5.744,12.829-12.829
		v-17.807h54.258V486.342z"/>
	<path style="fill:#58595B;" d="M208.401,190.144h-59.33c-7.085,0-12.829,5.744-12.829,12.829v59.33
		c0,7.085,5.744,12.829,12.829,12.829h59.33c7.085,0,12.829-5.744,12.829-12.829v-59.33
		C221.23,195.888,215.486,190.144,208.401,190.144z M195.572,249.474H161.9v-33.672h33.672V249.474z"/>
	<path style="fill:#58595B;" d="M263.338,249.474c-7.085,0-12.829,5.744-12.829,12.829c0,7.085,5.744,12.829,12.829,12.829h99.591
		c7.085,0,12.829-5.744,12.829-12.829c0-7.085-5.744-12.829-12.829-12.829H263.338z"/>
	<path style="fill:#58595B;" d="M208.401,328.777h-59.33c-7.085,0-12.829,5.744-12.829,12.829v59.33
		c0,7.085,5.744,12.829,12.829,12.829h59.33c7.085,0,12.829-5.744,12.829-12.829v-59.33
		C221.23,334.519,215.486,328.777,208.401,328.777z M195.572,388.105H161.9v-33.672h33.672V388.105z"/>
	<path style="fill:#58595B;" d="M362.93,388.105h-99.591c-7.085,0-12.829,5.744-12.829,12.829c0,7.085,5.744,12.829,12.829,12.829
		h99.591c7.085,0,12.829-5.744,12.829-12.829C375.759,393.849,370.015,388.105,362.93,388.105z"/>
	<path style="fill:#58595B;" d="M237.285,84.946h5.886v5.886c0,7.085,5.744,12.829,12.829,12.829s12.829-5.744,12.829-12.829v-5.886
		h5.886c7.085,0,12.829-5.744,12.829-12.829c0-7.085-5.744-12.829-12.829-12.829h-5.886v-5.886c0-7.085-5.744-12.829-12.829-12.829
		s-12.829,5.744-12.829,12.829v5.886h-5.886c-7.085,0-12.829,5.744-12.829,12.829C224.456,79.202,230.2,84.946,237.285,84.946z"/>
</g>
<g>
</g>
<g>
</g>
<g>
</g>
<g>
</g>
<g>
</g>
<g>
</g>
<g>
</g>
<g>
</g>
<g>
</g>
<g>
</g>
<g>
</g>
<g>
</g>
<g>
</g>
<g>
</g>
<g>
</g>
</svg>
